<?xml version="1.0" standalone="no"?><!DOCTYPE svg PUBLIC "-//W3C//DTD SVG 1.1//EN" "http://www.w3.org/Graphics/SVG/1.1/DTD/svg11.dtd"><svg t="1724157712247" class="icon" viewBox="0 0 1040 1024" version="1.1" xmlns="http://www.w3.org/2000/svg" p-id="2697" xmlns:xlink="http://www.w3.org/1999/xlink" width="32.5" height="32"><path d="M867.076063 930.702222L747.76381 888.604444l-82.24508 96.434794L518.046476 435.44381h0.24381l-3.74654-12.946286-0.373841-0.43073v0.065016l0.162539 0.227555-3.202031 13.084445h0.032508l-147.512889 549.904253-82.293842-96.418539-119.287873 41.927111 131.803429-490.000254 0.268191-0.16254c1.37346-0.78019 2.893206-1.560381 4.299174-2.364952 0.471365-0.26819 0.203175-0.544508 0.650159-0.812699 33.978921-19.878603 66.056127-42.536635 92.875174-67.161396v17.391746h253.358731v-17.391746c8.939683 8.403302 19.407238 16.774095 29.630984 24.673523 17.050413 13.206349 36.303238 25.510603 55.442285 37.432889h0.113778c1.340952 0 2.324317 1.462857 3.640889 2.243048l0.056889 0.089397 132.87619 495.900444z" fill="#D25256" p-id="2698"></path><path d="M391.964444 164.205714h253.350604v223.55708H391.956317z" fill="#F8A805" p-id="2699"></path><path d="M1008.956952 175.754159v196.729904c0 81.456762-43.308698 156.062476-101.790476 138.418794-50.314159-14.425397-114.44419-41.195683-173.104762-76.190476-0.113778-0.056889-0.016254-0.113778-0.105651-0.178794-1.316571-0.772063-2.202413-1.576635-3.543365-2.413714-19.139048-11.589079-38.440635-24.055873-55.515428-37.254095-10.223746-7.899429-20.64254-16.091429-29.582222-24.502857V177.867175c71.533714-66.226794 183.612952-118.206984 261.607619-140.53181 58.457397-17.643683 102.034286 56.953905 102.034285 138.418794zM391.964444 177.875302v192.487619c-26.827175 24.624762-58.904381 47.274667-92.883301 67.153269-0.446984 0.26819-0.552635 0.536381-1.032127 0.812699-1.397841 0.796444-2.730667 1.576635-4.104127 2.348698-0.089397 0.056889-0.08127 0.089397-0.178794 0.146286-55.734857 32.020317-115.744508 56.515048-163.108571 70.078984-58.457397 17.643683-102.343111-56.962032-102.343111-138.42692V175.754159c0-81.456762 43.544381-156.070603 101.99365-138.418794C208.327111 59.652063 317.44 111.640381 391.964444 177.875302z" fill="#D25256" p-id="2700"></path><path d="M978.050032 22.918095c-23.243175-17.253587-50.93181-22.292317-78.019048-14.189714-73.695492 21.122032-174.486349 67.006984-248.23873 125.700063a0.146286 0.146286 0 0 1-0.121905 0.024381 29.744762 29.744762 0 0 0-4.868063-0.43073H393.451683a29.744762 29.744762 0 0 0-5.396318 0.512 0.138159 0.138159 0 0 1-0.113778-0.024381C307.11873 71.224889 206.522921 27.745524 140.190476 8.728381 113.111365 0.625778 85.42273 5.656381 62.187683 22.918095 24.421587 50.95619 0 110.965841 0 175.754159v196.729904c0 64.910222 24.340317 124.928 62.017016 152.917334 15.928889 11.824762 33.962667 17.879365 52.475936 17.879365 8.403302 0 16.904127-1.251556 25.339937-3.779048 33.848889-9.703619 70.972952-23.933968 107.365587-40.943746a0.16254 0.16254 0 0 1 0.219429 0.186921L133.28254 923.062857a29.809778 29.809778 0 0 0 38.684444 35.864381l99.896889-35.149206a0.16254 0.16254 0 0 1 0.170667 0.040635l68.949333 80.709079a29.809778 29.809778 0 0 0 51.451937-11.637841l122.018539-455.021715c0.040635-0.16254 0.26819-0.16254 0.308826 0l121.799111 454.054604c2.056127 7.655619 6.777905 14.482286 13.612698 18.505143 13.003175 7.663746 28.83454 4.534857 38.009905-6.209016l68.884317-80.611556a0.16254 0.16254 0 0 1 0.170667-0.048762l99.929397 35.24673a29.85854 29.85854 0 0 0 36.00254-13.637079c3.900952-6.891683 4.583619-15.164952 2.527492-22.820571l-114.834286-428.633397a0.16254 0.16254 0 0 1 0.227555-0.186921c39.529651 19.082159 80.530286 35.100444 118.426413 45.974349 8.452063 2.535619 16.969143 3.779048 25.388699 3.779048 18.643302 0 36.839619-6.119619 52.92292-18.066286C1015.751111 497.046349 1040.253968 437.093587 1040.253968 372.484063V175.754159c0-64.78019-24.41346-124.773587-62.203936-152.836064zM616.838095 357.579175H423.415873a0.16254 0.16254 0 0 1-0.16254-0.16254V193.796063c0-0.08127 0.08127-0.16254 0.16254-0.162539h193.422222c0.089397 0 0.16254 0.08127 0.16254 0.162539V357.424762a0.16254 0.16254 0 0 1-0.16254 0.16254z m-493.600508 124.667936l-0.406349 0.121905c-9.224127 2.787556-17.017905 1.300317-25.266794-4.827429-22.349206-16.603429-37.953016-59.798349-37.953015-105.06565V175.754159c0-45.145397 15.676952-88.315937 38.123682-104.984381 5.664508-4.209778 11.109587-6.257778 16.920381-6.257778 2.738794 0 5.566984 0.463238 8.533333 1.357206l0.414477 0.121905c69.420698 19.870476 168.683683 65.901714 239.981714 125.488762a0.16254 0.16254 0 0 1 0.056889 0.121905v52.549079a0.16254 0.16254 0 0 1-0.16254 0.16254H209.814349c-15.961397 0-29.956063 12.027937-30.915047 27.956825a29.809778 29.809778 0 0 0 29.744761 31.654603h154.843429c0.08127 0 0.16254 0.073143 0.16254 0.16254v52.776635a0.16254 0.16254 0 0 1-0.056889 0.121905c-21.690921 18.472635-130.194286 95.995937-240.347429 125.261206z m226.360889 440.214349a0.16254 0.16254 0 0 1-0.276317 0.065016l-45.316064-53.044825a29.809778 29.809778 0 0 0-32.556698-8.752762l-65.625397 23.088762a0.16254 0.16254 0 0 1-0.203175-0.186921l113.802159-423.058286-0.040635-0.024381c17.594921-10.451302 43.958857-28.858921 57.376508-38.375619 4.843683-3.437714 10.67073-5.030603 16.603429-4.981841h91.030349c0.105651 0 0.186921 0.08127 0.16254 0.178794-0.853333 3.730286-134.956698 505.092063-134.956699 505.092063z m408.080254-61.960127a29.809778 29.809778 0 0 0-32.572952 8.744635l-45.267302 52.97981a0.16254 0.16254 0 0 1-0.276317-0.065016S545.540063 421.822984 544.402286 417.377524c-0.024381-0.105651 0.056889-0.186921 0.162539-0.186921h102.237461c2.681905 0 18.391365 4.201651 19.382857 4.965587 15.132444 11.702857 23.503238 19.748571 42.14654 31.321397a0.16254 0.16254 0 0 1 0.065015 0.089397l115.175619 429.91746a0.16254 0.16254 0 0 1-0.203174 0.186921l-65.690413-23.170032z m222.96381-488.025396c0 44.97473-15.774476 88.104635-38.359365 104.87873-8.35454 6.200889-16.538413 7.793778-25.76254 5.006222l-0.398222-0.113778c-85.512127-19.350349-207.034921-99.230476-222.216127-110.973968a390.582857 390.582857 0 0 1-17.245461-14.100318 0.154413 0.154413 0 0 1-0.048762-0.121904v-52.971683c0-0.08127 0.065016-0.16254 0.16254-0.16254h150.682413c15.961397 0 29.956063-12.027937 30.915047-27.956825a29.809778 29.809778 0 0 0-29.744761-31.654603H676.766476a0.16254 0.16254 0 0 1-0.162539-0.16254v-52.866032a0.16254 0.16254 0 0 1 0.056888-0.121904c67.527111-58.28673 167.757206-104.504889 239.957334-125.163683l0.414476-0.121905c9.272889-2.80381 17.131683-1.29219 25.469968 4.908699 22.454857 16.676571 38.139937 59.847111 38.139937 104.984381v196.721777z" fill="#231F20" p-id="2701"></path></svg>