<?xml version="1.0" standalone="no"?><!DOCTYPE svg PUBLIC "-//W3C//DTD SVG 1.1//EN" "http://www.w3.org/Graphics/SVG/1.1/DTD/svg11.dtd"><svg t="1724571968754" class="icon" viewBox="0 0 1024 1024" version="1.1" xmlns="http://www.w3.org/2000/svg" p-id="2634" xmlns:xlink="http://www.w3.org/1999/xlink" width="32" height="32"><path d="M0 512a512 512 0 1 0 1024 0A512 512 0 1 0 0 512z" fill="#65A731" p-id="2635"></path><path d="M413.61 239.086c-137.073 0-249.34 92.833-249.34 211.56 0 69.088 36.706 125.214 99.306 168.394l-24.82 74.473 87.435-43.18c31.307 6.473 56.126 12.961 87.433 12.961 7.562 0 15.11-1.074 23.746-1.074-4.325-16.198-7.562-33.47-7.562-51.816 0-109.016 92.833-197.524 211.56-197.524 7.547 0 16.183 0 23.745 1.074C643.53 313.559 535.588 239.086 413.61 239.086z m-83.109 179.179a38.869 38.869 0 1 1 0.015-77.724 38.869 38.869 0 0 1-0.015 77.724z m193.214-6.288a38.855 38.855 0 1 1-38.869-67.297 38.855 38.855 0 0 1 38.87 67.297z" fill="#FFFFFF" p-id="2636"></path><path d="M865.874 608.242c0-99.307-99.306-180.267-211.56-180.267-118.726 0-211.56 80.96-211.56 180.267s92.834 180.267 211.56 180.267c24.834 0 49.654-6.474 74.473-12.947l68 37.78-18.346-62.6c50.741-37.809 87.433-87.462 87.433-142.5z m-276.322-29.145a26.968 26.968 0 1 1-0.014-53.95 26.968 26.968 0 0 1 0.014 53.95z m150.578-1.46a26.953 26.953 0 0 1-40.473-23.36 26.982 26.982 0 1 1 40.473 23.36z" fill="#FFFFFF" p-id="2637"></path></svg>