<?xml version="1.0" standalone="no"?><!DOCTYPE svg PUBLIC "-//W3C//DTD SVG 1.1//EN" "http://www.w3.org/Graphics/SVG/1.1/DTD/svg11.dtd"><svg t="1723877509863" class="icon" viewBox="0 0 1024 1024" version="1.1" xmlns="http://www.w3.org/2000/svg" p-id="7740" xmlns:xlink="http://www.w3.org/1999/xlink" width="32" height="32"><path d="M0 0h1024v1024H0z" fill="#FFFFFF" p-id="7741"></path><path d="M762.816 960c-10.112 0-21.888-3.328-31.936-8.448l-218.56-109.248-220.224 109.248a66.88 66.88 0 0 1-70.592-5.056c-20.16-15.104-31.936-41.984-26.88-67.2l45.376-235.392-173.12-161.28a74.048 74.048 0 0 1-18.496-70.656c8.448-25.216 28.608-43.712 55.488-47.04l240.384-43.712L451.84 102.656c11.712-23.488 35.264-38.656 60.48-38.656s50.432 15.104 60.544 38.656l107.584 218.56 240.384 42.048c25.216 3.328 47.04 21.888 53.76 47.104 8.448 25.216 1.664 52.16-16.832 70.592l-173.12 163.072 43.712 235.392c5.056 26.88-6.72 52.096-26.88 67.2a60.416 60.416 0 0 1-38.656 13.376z" fill="#323333" p-id="7742"></path></svg>