<?xml version="1.0" standalone="no"?><!DOCTYPE svg PUBLIC "-//W3C//DTD SVG 1.1//EN" "http://www.w3.org/Graphics/SVG/1.1/DTD/svg11.dtd"><svg t="1724572445183" class="icon" viewBox="0 0 1168 1024" version="1.1" xmlns="http://www.w3.org/2000/svg" p-id="5763" xmlns:xlink="http://www.w3.org/1999/xlink" width="36.5" height="32"><path d="M441.697301 475.406603a514.319168 514.319168 0 0 1 142.775002 11.191585 372.90197 372.90197 0 0 1 141.910944 62.829229 232.348827 232.348827 0 0 1 59.126132 64.187032 169.396161 169.396161 0 0 1 23.494099 78.464533 180.052854 180.052854 0 0 1-35.467449 110.763776 300.362394 300.362394 0 0 1-90.520174 81.138992 502.263527 502.263527 0 0 1-270.696464 65.832853 461.776322 461.776322 0 0 1-175.279973-39.376275A268.968352 268.968352 0 0 1 123.4366 818.683788a163.059749 163.059749 0 0 1-26.209704-121.13245 208.114108 208.114108 0 0 1 60.771952-108.500772A355.044808 355.044808 0 0 1 250.987754 524.081769a505.18486 505.18486 0 0 1 190.832984-48.675166z m-15.429575 95.210764a221.73328 221.73328 0 0 0-63.857867 13.948336 198.9798 198.9798 0 0 0-106.608078 92.700887A152.814511 152.814511 0 0 0 238.644094 757.171216a144.62655 144.62655 0 0 0 37.318999 87.516549 171.535729 171.535729 0 0 0 64.02245 44.025721 215.273431 215.273431 0 0 0 172.81124-8.558271 190.791839 190.791839 0 0 0 95.498783-101.42374 146.354662 146.354662 0 0 0 2.715606-98.296679 148.699958 148.699958 0 0 0-40.322623-62.376629 192.108496 192.108496 0 0 0-144.338532-47.399654" fill="#FFFFFF" p-id="5764"></path><path d="M466.590349 690.186287a22.959208 22.959208 0 1 1-15.676448 31.023732 24.234719 24.234719 0 0 1 15.676448-31.023732z m-102.452378 23.4941a57.603747 57.603747 0 0 1 44.437176 12.34366 52.789719 52.789719 0 0 1 18.926945 33.945065 60.648516 60.648516 0 0 1-19.132673 51.719935 64.845361 64.845361 0 0 1-36.208069 16.828524 57.603747 57.603747 0 0 1-42.338754-11.315022 52.583992 52.583992 0 0 1-19.832147-32.916427 59.41415 59.41415 0 0 1 15.84103-50.732443 64.804215 64.804215 0 0 1 38.265346-19.749856z m0 0" fill="#FFFFFF" p-id="5765"></path><path d="M812.994595 0.504856a16.458213 16.458213 0 0 1 4.649446-0.493747h47.152781a37.483581 37.483581 0 0 0 12.34366 1.398948c5.80152 1.56353 11.891059 1.357803 17.692579 3.003624a97.92637 97.92637 0 0 1 14.935829 2.880188 150.592652 150.592652 0 0 1 29.131038 8.229106 290.940067 290.940067 0 0 1 60.031333 25.880541c7.159323 3.003624 12.672824 8.722853 19.461837 12.34366 4.114553 1.93384 6.91245 5.225483 10.903567 7.118177a272.753741 272.753741 0 0 1 34.932557 30.03624c2.715605 3.291643 6.624431 5.307774 9.175454 8.763998 4.114553 5.102046 9.545764 8.969726 13.290008 14.359791 2.592169 3.826535 6.130684 6.871304 8.92858 10.574403a322.498691 322.498691 0 0 1 30.241968 47.193926 225.60096 225.60096 0 0 1 13.331152 26.868034 323.650766 323.650766 0 0 1 13.001989 36.578379 330.234051 330.234051 0 0 1 12.755115 68.836477 342.989167 342.989167 0 0 1-8.229106 100.929994 69.947407 69.947407 0 0 1-11.273877 28.801873 43.531974 43.531974 0 0 1-52.337118 13.290008 44.684049 44.684049 0 0 1-26.045123-43.367393 210.541695 210.541695 0 0 1 5.266628-23.494099c0.864056-6.91245 3.168206-13.619172 3.456225-20.572767a230.414987 230.414987 0 0 0 0.411456-63.28183 245.515398 245.515398 0 0 0-9.257745-40.569496c-2.551023-6.418703-3.86768-13.290007-6.747868-19.585274-5.102046-10.903566-10.121801-21.848278-16.21134-32.258098-4.567154-6.17183-7.694215-13.331153-12.796261-19.132673-4.114553-4.690591-7.570778-9.957219-11.479604-14.812393a255.596054 255.596054 0 0 0-31.394042-29.624784 248.72475 248.72475 0 0 0-38.923674-26.25085 90.520174 90.520174 0 0 0-17.363416-7.694215c-7.611924-3.826535-16.005613-5.760375-23.782118-9.216599-8.229107-2.509878-17.075396-4.114553-25.510231-6.583286a317.232063 317.232063 0 0 0-35.837759-3.085915 159.685815 159.685815 0 0 0-31.97008 1.357803 58.879258 58.879258 0 0 1-26.950324-3.003624 37.236708 37.236708 0 0 1-15.470721-10.738984c-4.114553-2.386441-4.320281-7.611924-6.706722-11.315022a26.291996 26.291996 0 0 1-4.320281-15.923321 49.703804 49.703804 0 0 1 0.946348-14.154064A43.20281 43.20281 0 0 1 798.223349 2.438696c4.772882-1.769258 9.998365 0 14.771246-1.93384z m0 0" fill="#FFA21F" p-id="5766"></path><path d="M819.865899 158.339122c11.273876-0.905202 22.712334 0 34.109648-0.411455a58.796967 58.796967 0 0 1 14.195209 2.016131 167.338884 167.338884 0 0 1 35.796614 9.833782 158.492595 158.492595 0 0 1 31.68206 18.021744c6.665576 3.744244 12.34366 9.010872 18.597782 13.331153 8.84629 9.586909 17.034251 19.832147 25.222212 29.995094a172.399785 172.399785 0 0 1 29.37791 85.541564 233.994649 233.994649 0 0 1-0.658328 32.710699 78.176514 78.176514 0 0 1-15.717594 43.655411 40.857515 40.857515 0 0 1-33.204445 10.533256 38.306492 38.306492 0 0 1-24.934194-15.018119 39.993459 39.993459 0 0 1-7.529632-28.801874c1.152075-6.254121 2.468732-12.34366 3.744243-18.762363a93.523798 93.523798 0 0 0-41.145533-90.520174 99.4899 99.4899 0 0 0-38.553365-14.2775 264.442343 264.442343 0 0 0-27.73209 0.288019 38.882529 38.882529 0 0 1-26.538869-10.697839 51.637644 51.637644 0 0 1-11.397312-20.120166 40.52835 40.52835 0 0 1 5.678083-29.254474 39.911167 39.911167 0 0 1 28.801874-17.898307z m0 0" fill="#FFA21F" p-id="5767"></path><path d="M457.00344 166.609374a109.323682 109.323682 0 0 1 77.147875 19.708711 87.722277 87.722277 0 0 1 31.887789 48.428293 119.856939 119.856939 0 0 1 2.057276 39.211693 321.346616 321.346616 0 0 1-8.640562 40.816369 100.971139 100.971139 0 0 0-5.143192 29.707075 7.817651 7.817651 0 0 0 7.241614 7.200469 54.846996 54.846996 0 0 0 23.041499-6.336413c17.980598-8.229107 35.83776-16.746232 53.777212-25.016484A435.44318 435.44318 0 0 1 699.474068 299.427156a213.956774 213.956774 0 0 1 77.065585-6.254121 91.672249 91.672249 0 0 1 56.657399 27.649799 104.962256 104.962256 0 0 1 24.68732 66.614618 181.040347 181.040347 0 0 1-11.932204 75.337472 46.412162 46.412162 0 0 0-5.966103 31.147169 19.832147 19.832147 0 0 0 16.458214 12.796261 199.103236 199.103236 0 0 1 85.623855 34.809121 137.960974 137.960974 0 0 1 43.655411 53.283466 152.896802 152.896802 0 0 1 10.985857 88.997789 262.755377 262.755377 0 0 1-47.893401 110.146593 471.034067 471.034067 0 0 1-147.589028 130.760505 733.954025 733.954025 0 0 1-267.445968 90.067573 673.3878 673.3878 0 0 1-281.600031-17.651434 422.523483 422.523483 0 0 1-149.975469-78.464533 277.567769 277.567769 0 0 1-89.162371-128.0449 311.348252 311.348252 0 0 1-3.168206-166.927429 568.672418 568.672418 0 0 1 83.196269-182.768459 802.008738 802.008738 0 0 1 162.277984-176.925794A617.183002 617.183002 0 0 1 345.622481 203.599209a299.621775 299.621775 0 0 1 111.09294-37.03098z m-15.306139 308.591501A505.143714 505.143714 0 0 0 250.987754 524.081769a355.044808 355.044808 0 0 0-92.988906 64.968797 208.114108 208.114108 0 0 0-60.813098 108.500772A163.059749 163.059749 0 0 0 123.4366 818.683788a269.050643 269.050643 0 0 0 113.314799 91.589958 461.776322 461.776322 0 0 0 175.279973 39.376275 502.263527 502.263527 0 0 0 270.696464-65.832853 300.362394 300.362394 0 0 0 90.520174-81.138992 180.052854 180.052854 0 0 0 35.673177-110.763776 169.396161 169.396161 0 0 0-23.494099-78.464533 232.348827 232.348827 0 0 0-59.126132-64.187032 372.860824 372.860824 0 0 0-141.869799-62.829229 514.031149 514.031149 0 0 0-142.816147-11.191585" fill="#D81E06" p-id="5768"></path><path d="M426.267726 570.617367a192.108496 192.108496 0 0 1 144.338532 47.399655 148.699958 148.699958 0 0 1 40.322623 62.376628 146.354662 146.354662 0 0 1-2.715606 98.29668 190.791839 190.791839 0 0 1-95.539928 101.300303 215.273431 215.273431 0 0 1-172.811241 8.558271 171.61802 171.61802 0 0 1-64.02245-44.025721A144.62655 144.62655 0 0 1 238.644094 757.171216a152.814511 152.814511 0 0 1 17.116542-79.904626 198.9798 198.9798 0 0 1 106.649223-92.700887 221.73328 221.73328 0 0 1 63.857867-13.948336z m40.322623 119.56892a23.082644 23.082644 0 1 0 31.887789 13.536881 24.68732 24.68732 0 0 0-31.887789-13.536881z m-102.452378 23.4941a64.804215 64.804215 0 0 0-38.265346 19.791001 59.41415 59.41415 0 0 0-15.841031 50.732443 52.583992 52.583992 0 0 0 19.832148 32.916427 57.603747 57.603747 0 0 0 42.338753 11.315022 64.845361 64.845361 0 0 0 36.20807-16.828524 60.648516 60.648516 0 0 0 19.132673-51.719935 52.789719 52.789719 0 0 0-18.926945-33.90392 57.603747 57.603747 0 0 0-44.437177-12.34366" fill="#2C2C2C" p-id="5769"></path></svg>