<?xml version="1.0" standalone="no"?><!DOCTYPE svg PUBLIC "-//W3C//DTD SVG 1.1//EN" "http://www.w3.org/Graphics/SVG/1.1/DTD/svg11.dtd"><svg t="1724572329211" class="icon" viewBox="0 0 1024 1024" version="1.1" xmlns="http://www.w3.org/2000/svg" p-id="5604" xmlns:xlink="http://www.w3.org/1999/xlink" width="32" height="32"><path d="M397.653333 481.493333a399.018667 399.018667 0 0 1 114.730667 9.344c41.130667 8.96 80 26.794667 114.048 52.352a191.146667 191.146667 0 0 1 47.530667 53.504c11.349333 19.84 17.834667 42.282667 18.858666 65.365334a153.813333 153.813333 0 0 1-28.501333 92.330666 244.608 244.608 0 0 1-72.746667 67.584 392.234667 392.234667 0 0 1-217.557333 54.869334 360.064 360.064 0 0 1-140.842667-32.810667 217.856 217.856 0 0 1-91.306666-76.458667 139.904 139.904 0 0 1-21.077334-100.949333c7.04-34.56 24.064-66.133333 48.853334-90.453333a285.44 285.44 0 0 1 74.752-54.101334 394.496 394.496 0 0 1 153.344-40.533333H397.653333z m-12.416 79.36a172.8 172.8 0 0 0-51.328 11.605334 161.792 161.792 0 0 0-85.674666 77.226666 131.285333 131.285333 0 0 0-13.781334 66.602667c1.792 27.136 12.373333 52.864 29.994667 72.96a137.813333 137.813333 0 0 0 51.456 36.693333c45.226667 17.834667 95.573333 15.274667 138.88-7.125333a156.757333 156.757333 0 0 0 76.757333-84.522667 124.458667 124.458667 0 0 0-30.208-133.888 150.912 150.912 0 0 0-116.053333-39.509333l-0.042667-0.042667z" fill="#FFFFFF" p-id="5605"></path><path d="M417.664 660.48a18.346667 18.346667 0 0 1 22.101333 13.056 19.285333 19.285333 0 0 1-11.477333 23.552 18.261333 18.261333 0 0 1-23.253333-10.752 20.906667 20.906667 0 0 1 1.024-15.701333 19.669333 19.669333 0 0 1 11.605333-10.154667z m-82.346667 19.626667a44.416 44.416 0 0 1 50.901334 38.570666 51.626667 51.626667 0 0 1-44.458667 57.088 45.098667 45.098667 0 0 1-34.048-9.429333 44.117333 44.117333 0 0 1-15.914667-27.434667c-2.432-15.36 2.304-31.061333 12.714667-42.24 8.149333-8.96 18.986667-14.805333 30.762667-16.512v-0.085333z" fill="#FFFFFF" p-id="5606"></path><path d="M696.021333 85.76a12.8 12.8 0 0 1 3.754667-0.426667h37.888a29.098667 29.098667 0 0 0 9.898667 1.194667c4.693333 1.28 9.557333 1.109333 14.250666 2.474667 4.053333 0.469333 8.064 1.28 11.989334 2.389333 8.021333 1.493333 15.872 3.797333 23.424 6.869333a229.546667 229.546667 0 0 1 48.213333 21.589334c5.76 2.474667 10.24 7.253333 15.658667 10.24 3.328 1.664 5.546667 4.394667 8.746666 5.973333 10.026667 7.509333 19.413333 15.872 28.074667 25.002667 2.218667 2.773333 5.333333 4.437333 7.381333 7.338666 3.328 4.266667 7.68 7.466667 10.666667 11.946667 2.133333 3.2 4.949333 5.717333 7.210667 8.832 9.173333 12.373333 17.322667 25.514667 24.32 39.296 4.010667 7.253333 7.594667 14.72 10.666666 22.4 4.096 9.941333 7.594667 20.138667 10.453334 30.506667 5.376 18.688 8.832 37.888 10.24 57.344a296.064 296.064 0 0 1-6.570667 84.096c-1.28 8.618667-4.352 16.810667-9.088 24.021333a34.218667 34.218667 0 0 1-42.069333 11.093333 37.418667 37.418667 0 0 1-20.906667-36.181333c1.024-6.570667 2.474667-13.141333 4.266667-19.541333 0.64-5.76 2.517333-11.392 2.730666-17.152 2.474667-17.493333 2.56-35.242667 0.341334-52.736a211.029333 211.029333 0 0 0-7.424-33.834667c-2.048-5.333333-3.114667-11.093333-5.461334-16.298667-4.096-9.088-8.106667-18.218667-13.013333-26.88-3.669333-5.12-6.186667-11.093333-10.24-15.957333-3.328-3.925333-6.144-8.277333-9.258667-12.373333a208.725333 208.725333 0 0 0-25.216-24.661334 199.637333 199.637333 0 0 0-31.317333-21.888 71.466667 71.466667 0 0 0-13.952-6.4c-6.101333-3.2-12.842667-4.778667-19.114667-7.68-6.613333-2.090667-13.696-3.413333-20.48-5.461333a246.101333 246.101333 0 0 0-28.8-2.56 123.818667 123.818667 0 0 0-25.685333 1.109333 45.738667 45.738667 0 0 1-21.674667-2.517333 29.952 29.952 0 0 1-12.416-8.96c-3.328-1.962667-3.498667-6.314667-5.418666-9.386667a22.528 22.528 0 0 1-3.456-13.312c-0.298667-3.925333 0-7.893333 0.768-11.776a35.157333 35.157333 0 0 1 28.757333-26.112c3.84-1.493333 8.021333 0 11.861333-1.621333z" fill="#FFA21F" p-id="5607"></path><path d="M701.568 217.301333c9.045333-0.768 18.218667 0 27.392-0.341333 3.84 0.042667 7.68 0.64 11.434667 1.664 9.813333 1.621333 19.498667 4.352 28.757333 8.192 9.002667 3.968 17.536 9.002667 25.472 15.018667 5.333333 3.114667 9.898667 7.509333 14.933333 11.093333 7.082667 8.021333 13.653333 16.554667 20.266667 25.002667a147.2 147.2 0 0 1 23.594667 71.253333c0.426667 9.130667 0.256 18.218667-0.512 27.306667a66.645333 66.645333 0 0 1-12.629334 36.352 32.085333 32.085333 0 0 1-26.709333 8.789333 30.634667 30.634667 0 0 1-20.053333-12.501333 34.261333 34.261333 0 0 1-6.016-24.021334c0.938667-5.205333 1.962667-10.24 2.986666-15.616a79.061333 79.061333 0 0 0-33.066666-75.434666 78.208 78.208 0 0 0-30.976-11.904 204.970667 204.970667 0 0 0-22.272 0.256 30.677333 30.677333 0 0 1-21.333334-8.96 43.477333 43.477333 0 0 1-9.173333-16.725334 34.816 34.816 0 0 1 4.565333-24.405333 31.957333 31.957333 0 0 1 23.168-14.933333l0.170667-0.085334z" fill="#FFA21F" p-id="5608"></path><path d="M409.941333 224.170667a85.504 85.504 0 0 1 61.994667 16.426666c12.714667 10.069333 21.76 24.32 25.6 40.362667 2.304 10.709333 2.858667 21.76 1.706667 32.682667-1.621333 11.477333-3.925333 22.826667-6.954667 34.005333-2.56 7.978667-3.968 16.341333-4.138667 24.746667a6.4 6.4 0 0 0 5.802667 5.973333c6.485333-0.298667 12.8-2.133333 18.517333-5.248 14.464-6.826667 28.8-13.952 43.221334-20.864a341.504 341.504 0 0 1 49.109333-17.408 166.058667 166.058667 0 0 1 61.952-5.205333c17.322667 1.877333 33.450667 10.026667 45.525333 23.04 12.629333 15.573333 19.626667 35.2 19.84 55.509333a155.904 155.904 0 0 1-9.6 62.805333 39.893333 39.893333 0 0 0-4.778666 25.941334c2.090667 5.845333 7.210667 9.984 13.226666 10.666666a156.885333 156.885333 0 0 1 68.778667 29.013334c15.146667 11.477333 27.221333 26.752 35.114667 44.373333 10.026667 23.253333 13.098667 49.066667 8.832 74.197333a223.146667 223.146667 0 0 1-38.485334 91.733334 383.36 383.36 0 0 1-118.613333 109.013333 575.701333 575.701333 0 0 1-214.954667 75.050667c-75.605333 11.733333-152.746667 6.698667-226.304-14.72a335.573333 335.573333 0 0 1-120.533333-65.365334 231.552 231.552 0 0 1-71.68-106.709333 268.672 268.672 0 0 1-2.517333-139.093333 482.389333 482.389333 0 0 1 66.858666-152.32A660.053333 660.053333 0 0 1 247.893333 305.322667c22.698667-18.944 46.933333-35.797333 72.533334-50.346667a234.965333 234.965333 0 0 1 89.301333-30.848l0.213333 0.042667z m-12.288 257.152a394.453333 394.453333 0 0 0-153.301333 40.746666 285.44 285.44 0 0 0-74.709333 54.144 175.189333 175.189333 0 0 0-48.853334 90.410667 139.904 139.904 0 0 0 21.077334 100.949333 217.941333 217.941333 0 0 0 91.050666 76.330667 360.064 360.064 0 0 0 140.885334 32.810667 392.234667 392.234667 0 0 0 217.557333-54.869334 244.608 244.608 0 0 0 72.746667-67.626666 153.813333 153.813333 0 0 0 28.672-92.288 144.981333 144.981333 0 0 0-18.901334-65.408 191.146667 191.146667 0 0 0-47.530666-53.461334 294.485333 294.485333 0 0 0-114.005334-52.352 398.805333 398.805333 0 0 0-114.773333-9.344h0.085333z" fill="#D81E06" p-id="5609"></path><path d="M385.237333 560.853333a150.912 150.912 0 0 1 116.010667 39.509334 124.458667 124.458667 0 0 1 30.208 133.888 156.757333 156.757333 0 0 1-76.8 84.394666 167.424 167.424 0 0 1-138.837333 7.125334 137.898667 137.898667 0 0 1-51.456-36.693334 122.794667 122.794667 0 0 1-29.909334-72.789333c-1.322667-23.04 3.413333-46.08 13.738667-66.56a161.792 161.792 0 0 1 85.76-77.226667 172.8 172.8 0 0 1 51.285333-11.648z m32.426667 99.626667a19.541333 19.541333 0 0 0-9.045333 24.917333 18.346667 18.346667 0 0 0 23.637333 10.410667 19.456 19.456 0 0 0 11.008-24.021333 19.626667 19.626667 0 0 0-25.6-11.306667z m-82.346667 19.626667c-11.776 1.664-22.613333 7.466667-30.762666 16.469333-10.410667 11.221333-15.146667 26.88-12.714667 42.24 1.749333 10.922667 7.466667 20.736 15.914667 27.434667 9.728 7.68 21.930667 11.093333 34.048 9.429333a51.626667 51.626667 0 0 0 44.458666-57.130667 44.416 44.416 0 0 0-15.189333-28.245333 45.141333 45.141333 0 0 0-35.712-10.24h-0.042667z" fill="#2C2C2C" p-id="5610"></path></svg>