<?xml version="1.0" standalone="no"?><!DOCTYPE svg PUBLIC "-//W3C//DTD SVG 1.1//EN" "http://www.w3.org/Graphics/SVG/1.1/DTD/svg11.dtd"><svg t="1724157782066" class="icon" viewBox="0 0 1024 1024" version="1.1" xmlns="http://www.w3.org/2000/svg" p-id="3883" xmlns:xlink="http://www.w3.org/1999/xlink" width="32" height="32"><path d="M871.7 762.53l-86.62 17.86a48.26 48.26 0 0 0-31.35 22l-46.41 75.29a24.78 24.78 0 0 1-41.4 1.21L513.54 661.22a24.78 24.78 0 0 1 6.09-34.52L700.1 500.33a24.78 24.78 0 0 1 34.52 6.08L887 724a24.79 24.79 0 0 1-15.3 38.53z" fill="#3AAF09" p-id="3884"></path><path d="M154.59 762.53l86.62 17.86a48.26 48.26 0 0 1 31.35 22L319 877.63a24.79 24.79 0 0 0 41.41 1.21l152.34-217.62a24.78 24.78 0 0 0-6.08-34.52L326.19 500.33a24.78 24.78 0 0 0-34.52 6.08L139.29 724a24.79 24.79 0 0 0 15.3 38.53z" fill="#3AAF09" p-id="3885"></path><path d="M513.25 425.25m-317.35 0a317.35 317.35 0 1 0 634.7 0 317.35 317.35 0 1 0-634.7 0Z" fill="#24D316" p-id="3886"></path><path d="M526.94 634.27c-129.09 0-231.08-118.23-203.39-252.09 16.18-78.18 76.38-140.46 154.26-158.24 67.95-15.51 135.15 1.75 185 44.91a14.3 14.3 0 0 1 0.68 20.9l-29.34 29.35a14.32 14.32 0 0 1-19.26 0.89A138 138 0 0 0 389.07 431.4c2.69 73.72 63.5 132.87 137.87 132.87a136.9 136.9 0 0 0 88-31.69 14.28 14.28 0 0 1 19.22 0.94l29.34 29.34a14.32 14.32 0 0 1-0.76 21 206.42 206.42 0 0 1-135.8 50.41z" fill="#E1FFC7" p-id="3887"></path></svg>