<?xml version="1.0" standalone="no"?><!DOCTYPE svg PUBLIC "-//W3C//DTD SVG 1.1//EN" "http://www.w3.org/Graphics/SVG/1.1/DTD/svg11.dtd"><svg t="1723770391775" class="icon" viewBox="0 0 1024 1024" version="1.1" xmlns="http://www.w3.org/2000/svg" p-id="3923" xmlns:xlink="http://www.w3.org/1999/xlink" width="32" height="32"><path d="M511.337409 63.564711c-247.341295 0-447.847911 200.508663-447.847911 447.847911 0 247.339248 200.508663 447.847911 447.847911 447.847911 247.338225 0 447.846888-200.508663 447.846888-447.847911C959.18532 264.073374 758.676657 63.564711 511.337409 63.564711zM511.337409 894.935506c-211.81415 0-383.52186-171.709757-383.52186-383.522883 0-211.81415 171.706687-383.52186 383.52186-383.52186 211.812103 0 383.52186 171.70771 383.52186 383.52186C894.859269 723.225749 723.149513 894.935506 511.337409 894.935506z" fill="#ffffff" p-id="3924"></path><path d="M501.962901 270.521227c-65.918315 2.162246-135.077441 34.579563-157.769256 135.075395 54.029544 7.565303 79.96524 10.807137 79.96524 10.807137s14.048971-86.449931 100.496855-76.723406c86.448908 9.726525 66.998927 74.563206 58.351989 87.530542-8.643867 21.61325-88.609107 73.482595-101.577466 104.819301-12.967336 31.337729-11.886725 89.691765-11.886725 89.691765l77.80504 0c0 0-4.323469-61.59587 38.902008-87.530542 43.224454-25.934672 116.706025-101.57849 84.288708-173.97945C618.668926 277.004895 567.880193 268.360004 501.962901 270.521227z" fill="#ffffff" p-id="3925"></path><path d="M468.463949 650.897444l81.045851 0 0 88.598874-81.045851 0 0-88.598874Z" fill="#ffffff" p-id="3926"></path></svg>